<svg width="121" height="79" viewBox="0 0 121 79" fill="none" xmlns="http://www.w3.org/2000/svg">
<path fill-rule="evenodd" clip-rule="evenodd" d="M88.8836 1.57107L119.587 35.7071C121.471 37.8019 121.471 41.1981 119.587 43.2929L88.8836 77.4289C86.9995 79.5237 83.9448 79.5237 82.0606 77.4289C80.1765 75.3342 80.1765 71.9379 82.0606 69.8431L103.864 45.6023C104.12 45.3175 103.918 44.864 103.535 44.864H5.36396C2.40153 44.864 0 42.4624 0 39.5V39.5C0 36.5376 2.40153 34.136 5.36396 34.136H103.535C103.918 34.136 104.12 33.6825 103.864 33.3977L82.0606 9.15686C80.1765 7.0621 80.1765 3.66583 82.0606 1.57107C83.9448 -0.523689 86.9995 -0.523689 88.8836 1.57107Z" fill="white"/>
</svg>
