<svg width="269" height="55" viewBox="0 0 269 55" fill="none" xmlns="http://www.w3.org/2000/svg">
<path d="M6.02871 22.0209V40.7246H3.73269V17.5701H6.52324L16.0606 37.7221H16.3078L25.8451 17.5701H28.7063V40.7246H26.3573V22.0209H26.163L17.2439 40.7246H15.0715L6.22299 22.0209H6.02871ZM37.0893 41.1132C35.9059 41.1132 34.8109 40.9012 33.8219 40.495C31.8438 39.6649 30.5898 38.1107 30.5898 35.8676C30.5898 34.1545 31.3492 33.0241 32.7092 32.2647C34.0691 31.5052 35.9413 31.0813 38.1843 30.8517L40.9925 30.5338C42.5291 30.3572 43.3415 30.0216 43.3415 29.1562V28.75C43.3415 26.3657 41.6813 24.9351 38.6965 24.9351C35.853 24.9351 34.0515 26.2067 33.345 27.7079L31.1549 27.0015C31.5965 26.0654 32.2147 25.3059 33.0094 24.7231C34.5813 23.5928 36.6301 23.1159 38.6258 23.1159C40.1271 23.1159 41.8403 23.4338 43.2532 24.2816C44.6661 25.1293 45.6375 26.6129 45.6375 28.9443V40.7246H43.3415V37.9694H43.2002C42.9353 38.4816 42.5467 38.9761 41.9992 39.453C40.9219 40.4244 39.297 41.1132 37.0893 41.1132ZM37.4072 39.2764C38.6258 39.2764 39.6679 39.0467 40.5686 38.5699C42.3348 37.6338 43.3415 35.956 43.3415 34.0485V31.5582C42.6174 32.141 39.9505 32.406 38.1843 32.6179C37.0716 32.7415 36.1355 32.9181 35.3408 33.1831C33.7512 33.6953 32.8858 34.5607 32.8858 35.9736C32.8858 38.0754 34.7933 39.2764 37.4072 39.2764ZM55.928 38.8525L56.4225 40.6716C55.875 40.8659 55.1508 40.9719 54.3914 40.9719C51.4772 40.9719 49.3048 39.2234 49.3048 36.6624V25.1117H46.3553V23.3455H49.3048V19.2127H51.5832V23.3455H55.769V25.1117H51.5832V36.1856C51.5832 38.0754 52.6959 39.0114 54.5857 39.0114C55.0095 39.0114 55.4334 38.9761 55.928 38.8525ZM65.2293 38.8525L65.7238 40.6716C65.1763 40.8659 64.4522 40.9719 63.6927 40.9719C60.7786 40.9719 58.6062 39.2234 58.6062 36.6624V25.1117H55.6567V23.3455H58.6062V19.2127H60.8845V23.3455H65.0704V25.1117H60.8845V36.1856C60.8845 38.0754 61.9972 39.0114 63.887 39.0114C64.3109 39.0114 64.7348 38.9761 65.2293 38.8525ZM84.6042 32.088L89.9733 40.7246H82.2022L77.5748 33.0771H75.1022V40.7246H67.9669V17.5701H79.3057C81.2661 17.5701 82.9793 17.888 84.4452 18.5062C87.3771 19.7602 89.0903 22.1622 89.0903 25.4296C89.0903 27.0898 88.6664 28.4851 87.8363 29.6154C87.0592 30.6751 85.9641 31.5052 84.6042 32.088ZM77.6102 22.6037H75.1022V28.2025H77.6102C78.4579 28.2025 79.182 28.1142 79.7825 27.9199C80.9835 27.549 81.637 26.7542 81.637 25.4296C81.637 24.7761 81.4781 24.2286 81.1602 23.8047C80.5243 22.9746 79.3057 22.6037 77.6102 22.6037ZM94.9186 21.5793C92.9935 21.5793 91.4216 20.29 91.4216 18.7181C91.4216 17.1109 92.9935 15.8569 94.9186 15.8569C96.8437 15.8569 98.4156 17.1286 98.4156 18.7005C98.4156 20.3077 96.8437 21.5793 94.9186 21.5793ZM98.4863 23.3455V40.7246H91.3863V23.3455H98.4863ZM109.207 40.9895C104.774 40.9895 102.513 39.188 102.513 35.7263V27.8846H100.005V23.3455H102.513V19.2127H109.613V23.3455H113.004V27.8846H109.613V35.1259C109.613 35.85 110.019 36.2209 110.955 36.2209C111.379 36.2209 112.068 36.1149 112.333 36.0266L113.357 40.442C111.733 40.8482 110.479 40.9895 109.207 40.9895ZM121.933 40.9895C117.5 40.9895 115.239 39.188 115.239 35.7263V27.8846H112.731V23.3455H115.239V19.2127H122.339V23.3455H125.731V27.8846H122.339V35.1259C122.339 35.85 122.746 36.2209 123.682 36.2209C124.106 36.2209 124.794 36.1149 125.059 36.0266L126.084 40.442C124.459 40.8482 123.205 40.9895 121.933 40.9895ZM137.034 41.0425C134.932 41.0425 133.113 40.6893 131.594 39.9652C128.539 38.5522 126.861 35.8323 126.861 32.088C126.861 30.2865 127.267 28.7147 128.097 27.3724C129.722 24.7055 132.778 23.1336 136.857 23.1336C139.842 23.1336 142.297 23.9637 144.01 25.5002C145.724 27.0545 146.677 29.2798 146.677 32.0527V33.4833H133.82C133.855 34.0838 133.996 34.596 134.243 35.0552C134.791 36.0619 135.833 36.6448 137.175 36.6448C137.652 36.6448 138.094 36.5918 138.5 36.4681C139.277 36.2385 139.86 35.7617 140.142 35.1259H146.607C146.377 36.3268 145.865 37.3689 145.052 38.252C143.41 40.0358 140.69 41.0425 137.034 41.0425ZM133.873 30.0569H139.983C139.931 29.6507 139.825 29.2975 139.683 28.9972C139.206 28.0258 138.288 27.5137 136.928 27.5137C136.239 27.5137 135.674 27.6373 135.215 27.8846C134.455 28.3084 134.014 29.0326 133.873 30.0569ZM155.755 31.6818V40.7246H148.655V23.3455H155.543V26.6659H155.755C156.462 24.2109 158.104 23.1336 160.206 23.1336C160.824 23.1336 161.442 23.2219 162.008 23.3808V28.697C161.301 28.4674 160.118 28.3791 159.394 28.3791C158.705 28.3791 158.069 28.5204 157.522 28.7853C156.409 29.3505 155.755 30.3572 155.755 31.6818ZM170.591 37.8634V47.2241H163.491V23.3455H170.521V26.401H170.697C170.962 25.8005 171.333 25.253 171.828 24.7584C172.817 23.7694 174.283 23.1336 176.243 23.1336C177.55 23.1336 178.786 23.4338 179.97 24.052C182.301 25.2706 183.943 27.8316 183.943 32.0527C183.943 34.0485 183.59 35.7087 182.884 37.0157C181.471 39.6472 178.998 40.9365 176.172 40.9365C175.254 40.9365 174.441 40.8129 173.717 40.5303C172.269 40.0005 171.245 39.0467 170.697 37.8634H170.591ZM173.558 36.1502C174.212 36.1502 174.777 35.9913 175.236 35.6557C176.137 35.0199 176.632 33.7482 176.632 32.0527C176.632 31.1873 176.508 30.4455 176.278 29.8273C175.784 28.591 174.883 27.9199 173.558 27.9199C172.905 27.9199 172.357 28.0788 171.881 28.4144C170.944 29.0679 170.415 30.3395 170.415 32.0527C170.415 32.8828 170.538 33.6069 170.803 34.2251C171.298 35.4438 172.269 36.1502 173.558 36.1502ZM192.157 40.9365C190.779 40.9365 189.578 40.654 188.536 40.1065C186.47 38.9938 185.269 36.9803 185.269 34.437V23.3455H192.369V33.1477C192.369 34.8433 193.411 35.8853 195.195 35.8676C195.777 35.8676 196.29 35.7617 196.714 35.5321C197.561 35.1082 198.056 34.2781 198.056 33.1477V23.3455H205.156V40.7246H198.409V37.4219H198.197C197.349 39.6296 195.106 40.9542 192.157 40.9365ZM215.869 41.0425C209.846 41.0425 206.349 38.6759 205.943 35.1259H212.972C213.184 36.2385 214.332 36.839 215.904 36.839C217.229 36.839 218.165 36.4328 218.165 35.7263C218.165 35.1082 217.405 34.6843 215.904 34.437L212.407 33.8895C208.398 33.2537 206.402 31.5229 206.402 28.7853C206.402 27.5666 206.773 26.5423 207.515 25.7122C208.981 24.0343 211.754 23.1336 215.516 23.1336C221.22 23.1336 224.682 25.3413 224.841 28.9972H218.341C218.253 27.9552 217.052 27.3017 215.657 27.3017C214.438 27.3017 213.467 27.6903 213.467 28.4144C213.467 28.6793 213.59 28.9089 213.855 29.1385C214.103 29.3681 214.597 29.5448 215.339 29.6507L219.366 30.2865C223.393 30.9047 225.371 32.406 225.371 34.9669C225.371 36.2209 224.965 37.2982 224.134 38.199C222.492 40.0181 219.525 41.0425 215.869 41.0425ZM236.021 41.0425C233.884 41.0425 232.048 40.6716 230.529 39.9122C227.473 38.4109 225.813 35.638 225.813 32.088C225.813 30.3042 226.219 28.7323 227.032 27.39C228.639 24.7055 231.73 23.1336 236.021 23.1336C237.964 23.1336 239.642 23.4338 241.055 24.052C243.881 25.2883 245.506 27.5666 245.523 30.5868H238.953C238.9 29.9686 238.741 29.4564 238.494 29.0502C238 28.2201 237.187 27.7962 236.127 27.7962C235.509 27.7962 234.962 27.9552 234.503 28.2555C233.584 28.8913 233.054 30.1453 233.054 32.0527C233.054 32.9888 233.178 33.7836 233.443 34.4194C233.937 35.7087 234.873 36.3798 236.127 36.3798C237.682 36.3798 238.794 35.3025 238.953 33.4833H245.523C245.506 35.0199 245.1 36.3445 244.34 37.4749C242.786 39.7532 239.925 41.0425 236.021 41.0425ZM253.913 30.9577V40.7246H246.813V17.5701H253.631V26.6659H253.843C254.744 24.4582 256.898 23.1336 259.812 23.1336C261.208 23.1336 262.409 23.4161 263.451 23.9637C265.5 25.094 266.701 27.1074 266.701 29.6507V40.7246H259.601V30.9577C259.601 29.2445 258.594 28.2025 256.775 28.2025C256.192 28.2025 255.697 28.3084 255.273 28.538C254.408 28.9796 253.913 29.8097 253.913 30.9577Z" fill="black"/>
<path d="M172.371 49.0825L266.98 49.0825V43.3975L172.371 43.3975V49.0825Z" fill="#0085FF"/>
<path d="M3.73438 43.3975H161.822V49.0825H3.73438V43.3975Z" fill="#0085FF"/>
</svg>
